<svg width="45" height="45" viewBox="0 0 45 45" fill="none" xmlns="http://www.w3.org/2000/svg">
<circle cx="22.5" cy="22.5" r="22" stroke="#696969"/>
<path fill-rule="evenodd" clip-rule="evenodd" d="M22.4708 15.9511C20.24 15.9511 19.9982 15.962 19.1337 16.0009L19.1204 16.0015C18.5979 16.0084 18.0804 16.1048 17.5905 16.2866C16.867 16.5634 16.2945 17.1336 16.0147 17.8559C15.8316 18.3512 15.7351 18.8743 15.7296 19.4023C15.681 20.2906 15.681 20.5234 15.681 22.75C15.681 24.95 15.6893 25.2168 15.7296 26.0995C15.7378 26.6222 15.8342 27.1397 16.0147 27.6303C16.2949 28.3522 16.8673 28.9219 17.5905 29.1988C18.0801 29.3817 18.5977 29.4782 19.1204 29.4838C20.0077 29.5352 20.2415 29.5352 22.4708 29.5352C24.7155 29.5352 24.9514 29.5242 25.8158 29.484L25.8203 29.4838C26.3432 29.4775 26.861 29.381 27.3511 29.1988C28.0702 28.9195 28.639 28.3511 28.9186 27.6322C29.1014 27.1365 29.1978 26.6131 29.2037 26.0848H29.2138C29.2532 25.2085 29.2532 24.9748 29.2532 22.7353C29.2532 20.4959 29.2431 20.2603 29.2037 19.3849C29.1955 18.8628 29.0991 18.3459 28.9186 17.8559C28.6396 17.1359 28.0708 16.5664 27.3511 16.2866C26.8611 16.1039 26.3432 16.0075 25.8203 16.0015C24.9339 15.9511 24.702 15.9511 22.4708 15.9511ZM18.5849 24.3702C19.2418 25.9535 20.7878 26.9852 22.502 26.9841C24.8404 26.9795 26.7344 25.0839 26.737 22.7454C26.7366 21.0312 25.7036 19.4861 24.1196 18.8306C22.5357 18.1752 20.7129 18.5385 19.5014 19.7511C18.2898 20.9637 17.9281 22.7868 18.5849 24.3702ZM25.9175 18.35C25.9164 18.895 26.3569 19.338 26.902 19.34C27.1649 19.3407 27.4173 19.2367 27.6034 19.051C27.7896 18.8652 27.894 18.613 27.8938 18.35C27.8928 17.805 27.4507 17.3637 26.9056 17.3637C26.3606 17.3637 25.9185 17.805 25.9175 18.35Z" fill="#696969"/>
<path d="M22.502 19.9936C20.9832 19.9936 19.752 21.2248 19.752 22.7436C19.752 24.2624 20.9832 25.4936 22.502 25.4936C24.0207 25.4936 25.252 24.2624 25.252 22.7436C25.2484 21.2263 24.0193 19.9971 22.502 19.9936Z" fill="#696969"/>
<path fill-rule="evenodd" clip-rule="evenodd" d="M22.502 31.033C20.2535 31.033 19.9827 31.0212 19.1088 30.9829L19.1011 30.9826C18.4149 30.96 17.7375 30.8205 17.0982 30.5701C15.9921 30.1396 15.1174 29.2646 14.6874 28.1583C14.4466 27.5167 14.3167 26.8388 14.3033 26.1536C14.252 25.2754 14.252 24.9876 14.252 22.75C14.252 20.4886 14.2639 20.2246 14.3033 19.3492C14.317 18.6649 14.4469 17.9879 14.6874 17.3472C15.1169 16.2394 15.993 15.3637 17.101 14.9345C17.7414 14.6927 18.4185 14.5625 19.103 14.5495C19.9784 14.5 20.2662 14.5 22.502 14.5C24.762 14.5 25.0334 14.5118 25.8876 14.5488L25.9028 14.5495C26.589 14.5626 27.2679 14.6928 27.9103 14.9345C29.0179 15.3641 29.8938 16.2397 30.3239 17.3472C30.5687 17.9973 30.6993 18.6848 30.7098 19.3794C30.7611 20.2576 30.7611 20.5445 30.7611 22.7812C30.7611 25.0178 30.7483 25.3112 30.7098 26.1793C30.6961 26.8651 30.566 27.5436 30.3248 28.1858C29.8936 29.2929 29.0177 30.1682 27.9103 30.5985C27.2688 30.8388 26.5913 30.9687 25.9065 30.9826C25.031 31.033 24.7441 31.033 22.502 31.033ZM22.4708 15.9511C20.24 15.9511 19.9982 15.962 19.1337 16.0009L19.1204 16.0015C18.5979 16.0084 18.0804 16.1048 17.5905 16.2866C16.867 16.5634 16.2945 17.1336 16.0147 17.8559C15.8316 18.3512 15.7351 18.8743 15.7296 19.4023C15.681 20.2906 15.681 20.5234 15.681 22.75C15.681 24.95 15.6893 25.2168 15.7296 26.0995C15.7378 26.6222 15.8342 27.1397 16.0147 27.6303C16.2949 28.3522 16.8673 28.9219 17.5905 29.1988C18.0801 29.3817 18.5977 29.4782 19.1204 29.4838C20.0077 29.5352 20.2415 29.5352 22.4708 29.5352C24.7155 29.5352 24.9514 29.5242 25.8158 29.484L25.8203 29.4838C26.3432 29.4775 26.861 29.381 27.3511 29.1988C28.0702 28.9195 28.639 28.3511 28.9186 27.6322C29.1014 27.1365 29.1978 26.6131 29.2037 26.0848H29.2138C29.2532 25.2085 29.2532 24.9748 29.2532 22.7353C29.2532 20.4959 29.2431 20.2603 29.2037 19.3849C29.1955 18.8628 29.0991 18.3459 28.9186 17.8559C28.6396 17.1359 28.0708 16.5664 27.3511 16.2866C26.8611 16.1039 26.3432 16.0075 25.8203 16.0015C24.9339 15.9511 24.702 15.9511 22.4708 15.9511Z" fill="#696969"/>
</svg>
