<svg width="48" height="48" viewBox="0 0 48 48" fill="none" xmlns="http://www.w3.org/2000/svg">
<circle cx="24" cy="24" r="23.5" stroke="#DDDDDD"/>
<path d="M24.25 21.4936C22.7312 21.4936 21.5 22.7248 21.5 24.2436C21.5 25.7624 22.7312 26.9936 24.25 26.9936C25.7688 26.9936 27 25.7624 27 24.2436C26.9965 22.7263 25.7673 21.4971 24.25 21.4936Z" fill="#DDDDDD"/>
<path fill-rule="evenodd" clip-rule="evenodd" d="M24.25 32.533C22.0015 32.533 21.7307 32.5212 20.8568 32.4829L20.8492 32.4826C20.1629 32.46 19.4856 32.3205 18.8463 32.0701C17.7401 31.6396 16.8655 30.7646 16.4354 29.6583C16.1946 29.0167 16.0647 28.3388 16.0513 27.6536C16 26.7754 16 26.4876 16 24.25C16 21.9886 16.0119 21.7246 16.0513 20.8492C16.065 20.1649 16.1949 19.4879 16.4354 18.8472C16.865 17.7394 17.7411 16.8637 18.849 16.4345C19.4894 16.1927 20.1666 16.0625 20.851 16.0495C21.7264 16 22.0143 16 24.25 16C26.51 16 26.7815 16.0118 27.6357 16.0488L27.6508 16.0495C28.337 16.0626 29.016 16.1928 29.6583 16.4345C30.7659 16.8641 31.6419 17.7397 32.0719 18.8472C32.3168 19.4973 32.4473 20.1848 32.4578 20.8794C32.5092 21.7576 32.5092 22.0445 32.5092 24.2812C32.5092 26.5178 32.4963 26.8112 32.4578 27.6793C32.4442 28.3651 32.314 29.0436 32.0728 29.6858C31.6417 30.7929 30.7657 31.6682 29.6583 32.0985C29.0169 32.3388 28.3394 32.4687 27.6545 32.4826C26.7791 32.533 26.4922 32.533 24.25 32.533ZM24.25 28.4841C22.5358 28.4852 20.9898 27.4535 20.333 25.8702C19.6761 24.2868 20.0378 22.4637 21.2494 21.2511C22.461 20.0385 24.2838 19.6752 25.8677 20.3306C27.4516 20.9861 28.4846 22.5312 28.485 24.2454C28.4825 26.5839 26.5885 28.4795 24.25 28.4841ZM21.5 24.2436C21.5 22.7248 22.7312 21.4936 24.25 21.4936C25.7673 21.4971 26.9965 22.7263 27 24.2436C27 25.7624 25.7688 26.9936 24.25 26.9936C22.7312 26.9936 21.5 25.7624 21.5 24.2436ZM27.6655 19.85C27.6645 20.395 28.105 20.838 28.65 20.84C28.913 20.8407 29.1654 20.7367 29.3515 20.551C29.5376 20.3652 29.6421 20.113 29.6418 19.85C29.6408 19.305 29.1987 18.8637 28.6537 18.8637C28.1086 18.8637 27.6665 19.305 27.6655 19.85Z" fill="#DDDDDD"/>
</svg>
