<svg width="48" height="48" viewBox="0 0 48 48" fill="none" xmlns="http://www.w3.org/2000/svg">
<path d="M24.9838 29.4287L21.7895 32.6255C20.7919 33.5374 19.4814 34.0292 18.1306 33.9987C16.7799 33.9681 15.4929 33.4174 14.5375 32.4613C13.5821 31.5051 13.0319 30.2172 13.0013 28.8653C12.9708 27.5135 13.4622 26.2019 14.3734 25.2035L18.6734 20.9001C19.2608 20.3172 19.9775 19.8816 20.7651 19.6286C21.5527 19.3756 22.3889 19.3124 23.2055 19.4443C24.0221 19.5761 24.796 19.8992 25.4641 20.3873C26.1322 20.8753 26.6756 21.5144 27.0501 22.2526L25.6428 23.661C25.4431 22.953 25.0149 22.3311 24.4249 21.8923C23.8349 21.4535 23.1164 21.2225 22.3815 21.2354C21.488 21.2354 20.628 21.5819 19.9802 22.2079L15.669 26.5113C15.0961 27.1623 14.7928 28.0074 14.8208 28.8744C14.8487 29.7415 15.2059 30.5652 15.8195 31.1779C16.4332 31.7906 17.2571 32.1461 18.1235 32.1721C18.9899 32.1981 19.8336 31.8925 20.4828 31.3177L22.6272 29.1716C23.5096 29.4287 24.2132 29.4734 24.9727 29.4287H24.9838ZM25.1402 14.4505L21.9682 17.625C22.7584 17.5676 23.5526 17.6508 24.3137 17.8709L26.4358 15.7471C27.0836 15.1507 27.937 14.8284 28.817 14.8478C29.6971 14.8671 30.5355 15.2267 31.1565 15.8511C31.7775 16.4754 32.1328 17.3162 32.1481 18.197C32.1634 19.0778 31.8374 19.9303 31.2384 20.5759L26.9719 24.8458C26.5535 25.2604 26.0347 25.5595 25.4664 25.7136C24.898 25.8678 24.2995 25.8719 23.729 25.7256C23.1586 25.5792 22.6359 25.2873 22.2118 24.8785C21.7877 24.4696 21.4767 23.9577 21.3093 23.3927L21.2423 23.4486L19.902 24.7899C20.2707 25.5327 20.8113 26.1765 21.4788 26.668C22.1464 27.1595 22.9215 27.4843 23.7398 27.6155C24.558 27.7468 25.3958 27.6805 26.1833 27.4223C26.9708 27.1642 27.6854 26.7215 28.2675 26.1312L32.5452 21.8837C33.4926 20.8918 34.0146 19.5684 33.9997 18.1963C33.9848 16.8243 33.434 15.5125 32.4653 14.5415C31.4965 13.5705 30.1866 13.0174 28.8157 13.0004C27.4447 12.9834 26.1215 13.5039 25.129 14.4505H25.1402Z" fill="#A3A3A3"/>
</svg>
