<svg width="45" height="45" viewBox="0 0 45 45" fill="none" xmlns="http://www.w3.org/2000/svg">
<circle cx="22.5" cy="22.5" r="22" stroke="#696969"/>
<path d="M29.1625 18.0735C29.9095 17.6269 30.4685 16.9237 30.735 16.0952C30.0331 16.5117 29.265 16.8051 28.4642 16.9627C27.3538 15.7881 25.5946 15.5023 24.1695 16.2649C22.7444 17.0275 22.0063 18.6497 22.3675 20.2252C19.4922 20.0808 16.8133 18.7226 14.9975 16.4885C14.0499 18.123 14.5341 20.2125 16.1042 21.2635C15.5364 21.2452 14.9813 21.0915 14.485 20.8152C14.485 20.8302 14.485 20.8452 14.485 20.8602C14.4853 22.5628 15.6853 24.0294 17.3542 24.3668C16.8276 24.5101 16.2752 24.5312 15.7392 24.4285C16.2085 25.8845 17.5505 26.8821 19.08 26.9118C17.8132 27.9061 16.2487 28.4453 14.6383 28.4427C14.3529 28.4431 14.0677 28.4266 13.7842 28.3935C15.4195 29.4443 17.3228 30.0021 19.2667 30.0002C21.9711 30.0187 24.57 28.9526 26.4823 27.0402C28.3945 25.1278 29.4605 22.5287 29.4417 19.8243C29.4417 19.6693 29.4381 19.5152 29.4308 19.3618C30.1312 18.8557 30.7357 18.2286 31.2158 17.5102C30.5634 17.7994 29.8712 17.9893 29.1625 18.0735Z" fill="#696969"/>
</svg>
