<svg width="48" height="48" viewBox="0 0 48 48" fill="none" xmlns="http://www.w3.org/2000/svg">
<circle cx="24" cy="24" r="23.5" stroke="#DDDDDD"/>
<path d="M29.9975 19.1774C30.726 18.7418 31.2712 18.056 31.5311 17.248C30.8465 17.6542 30.0975 17.9404 29.3165 18.0941C28.2336 16.9486 26.518 16.6698 25.1282 17.4135C23.7384 18.1573 23.0185 19.7393 23.3708 21.2758C20.5667 21.135 17.9541 19.8104 16.1833 17.6316C15.2591 19.2257 15.7314 21.2634 17.2625 22.2884C16.7089 22.2706 16.1675 22.1207 15.6835 21.8512C15.6835 21.8658 15.6835 21.8804 15.6835 21.895C15.6838 23.5555 16.8541 24.9858 18.4816 25.3149C17.968 25.4546 17.4293 25.4752 16.9066 25.375C17.3643 26.795 18.673 27.7678 20.1647 27.7968C18.9293 28.7665 17.4035 29.2923 15.833 29.2898C15.5546 29.2902 15.2765 29.2742 15 29.2418C16.5948 30.2667 18.451 30.8106 20.3467 30.8087C22.9841 30.8268 25.5188 29.7871 27.3837 27.922C29.2486 26.057 30.2881 23.5223 30.2698 20.8849C30.2698 20.7337 30.2662 20.5833 30.2592 20.4338C30.9422 19.9402 31.5317 19.3287 32 18.628C31.3637 18.9101 30.6887 19.0952 29.9975 19.1774Z" fill="#CACACA"/>
</svg>
