<svg width="45" height="45" viewBox="0 0 45 45" fill="none" xmlns="http://www.w3.org/2000/svg">
<circle cx="22.5" cy="22.5" r="22" stroke="#696969"/>
<path d="M22.5054 28.9278H22.4871C22.4303 28.9278 16.7442 28.9168 15.3096 28.5272C14.5207 28.3147 13.9047 27.6983 13.6926 26.9093C13.4346 25.454 13.31 23.9781 13.3204 22.5002C13.3138 21.0198 13.4417 19.5418 13.7027 18.0846C13.9206 17.2949 14.5339 16.6756 15.3215 16.4502C16.7167 16.0835 22.246 16.0835 22.4807 16.0835H22.4999C22.5577 16.0835 28.2584 16.0945 29.6783 16.4841C30.4655 16.6977 31.0804 17.3128 31.2935 18.1002C31.5597 19.5609 31.6846 21.0439 31.6666 22.5286C31.673 24.0072 31.5448 25.4833 31.2834 26.9387C31.0686 27.7267 30.4522 28.3417 29.6637 28.5547C28.2703 28.9242 22.7401 28.9278 22.5054 28.9278ZM20.6721 19.7547L20.6675 25.2547L25.4452 22.5047L20.6721 19.7547Z" fill="#696969"/>
</svg>
